# xmcd
#
# Track frame offsets:
# 182
# 14065
# 26195
# 36352
# 49837
# 63400
# 74412
# 86947
# 98890
# 108325
# 118405
# 131370
#
# Disc length: 1933 seconds
#
#
# Revision: 0
# Processed by: cddbd v1.5.2PL0 Copyright (c) Steve Scherf et al.
# Submitted via: FreeRIP 2.30 
#
DISCID=b4078b0c
DTITLE=Bygraves, Max - BYGRAVES, MAX - Memories Are Made Of This
DYEAR=1900
DGENRE=Tanzmusik
TTITLE0=SF - Always Together
TTITLE1=Sf - Hello Dolly
TTITLE2=FOX JIVE - Charlie Girl
TTITLE3=QS - She Wears Red Feathers
TTITLE4=BL - Once In A While
TTITLE5=SF - Show Me The Way To Go Home
TTITLE6=SF - Jealous Heart
TTITLE7=BL - I Can´t Stop Loving You
TTITLE8=FOX - Strollin´
TTITLE9=QS - One Of Those Songs
TTITLE10=BL - That Lucky Old Sun
TTITLE11=BL - Memories Are Made Of This
EXTD=1990
EXTT0=
EXTT1=
EXTT2=
EXTT3=
EXTT4=
EXTT5=
EXTT6=
EXTT7=
EXTT8=
EXTT9=
EXTT10=
EXTT11=
PLAYORDER=
